<svg xmlns="http://www.w3.org/2000/svg" xmlns:xlink="http://www.w3.org/1999/xlink" version="1.1" id="Layer_1" x="0px" y="0px" style="enable-background:new 0 0 1080 1080;" xml:space="preserve" viewBox="265.56 307.39 508.82 333.3">
<style type="text/css">
	.st0{fill:#201F20;}
	.st1{font-family:'Rubik-Regular';}
	.st2{font-size:36.4868px;}
	.st3{fill:#BBD8F3;}
	.st4{fill:#D8E8C3;}
</style>
<g>
	<path class="st0" d="M415.96,532.54c-16.1,0-32.24,0.32-48.33,0c-21.41-0.42-39.45-21.59-43.9-41.57   c-4.39-19.71,2.66-43.25,19.29-55.37c5.68-4.14,12.07-7.18,18.75-9.3c0.01,0.03,0.01,0.06,0.02,0.09c1.24-0.44,2.51-0.83,3.79-1.19   c1.04-0.27,2.09-0.53,3.14-0.76c5.07-1.12,6.41,0.13,5.4-4.84c-0.85-4.16-4.46-8.99-6.39-12.79c-4.14-8.17-8.38-16.29-12.71-24.37   c-2.52-4.71-6.04-3.06-10.14-1.57c-10.68,3.88-20.77,9.52-29.79,16.42c-23.57,18.02-37.22,47.43-38.28,76.88   c-0.91,25.37,7.56,49.62,23.1,69.48c21.07,26.92,51.05,37.79,84.06,37.79h63.84c54.37-6.57,71.6-48.88,71.6-48.88H415.96z"/>
	<text transform="matrix(1 0 0 1 338.2151 631.6816)" class="st0 st1 st2">CLOUDLIFT SOLUTIONS</text>
	<g>
		<path class="st3" d="M285.11,393.35c-9.39-10.9-16.96-23.03-19.06-37.69c-2.26-15.74,3.24-28.28,16.76-36.93    c13.58-8.69,28.95-11.01,44.6-11.31c32.88-0.62,64.19,7.15,94.58,19.02c36.73,14.35,70.46,33.66,99.08,61.15    c11.62,11.16,22.05,23.36,28.58,38.25c2.59,5.91,4.72,12.31,5.5,18.68c2.14,17.47-6.09,31.03-22.79,38.86    c-11.9,5.58-24.63,7.39-37.68,7.55c4.4-1.08,8.86-1.95,13.19-3.27c28.18-8.58,38.11-30.91,25.58-57.54    c-8.83-18.77-22.63-33.6-38.57-46.35c-42.62-34.09-90.82-55.23-145.43-60.62c-15.56-1.54-31.05-0.57-46.05,4.52    c-23.09,7.84-32.93,26.26-25.93,48.79c1.16,3.72,2.89,7.27,4.48,10.85C282.87,389.38,284.04,391.34,285.11,393.35z"/>
		<path class="st3" d="M480.17,488.3c5.49-2.67,12.19-5.08,17.96-8.91c14.07-9.34,18.14-25.16,11.51-42.1    c-5.87-15.01-16.14-26.8-28.09-37.2c-29.23-25.42-63.35-41.2-100.81-50.03c-20.98-4.95-42.21-7.14-63.68-3.18    c-11.93,2.2-22.95,6.36-31.81,15.37c-0.33-6.22,3.94-13.8,10.58-18.71c10.84-8.01,23.41-10.59,36.51-10.88    c34-0.76,65.91,8.19,96.84,21.35c23.15,9.85,44.65,22.5,63.59,39.16c11.71,10.3,22.43,21.59,28.93,36.06    c2.25,5,4.06,10.43,4.79,15.83c1.9,13.95-3.61,24.84-15.3,32.64C501.43,484.21,490.43,486.93,480.17,488.3z"/>
	</g>
	<rect x="712" y="413.68" class="st4" width="13.93" height="13.93"/>
	<rect x="739.25" y="401.91" class="st4" width="25.7" height="26.64"/>
	<rect x="689.98" y="382.94" class="st4" width="21.09" height="22.42"/>
	<path class="st0" d="M774.17,514.73c-2.49-30.81-27.45-54.4-59.08-55.56c-11.09-0.41-22.2-0.31-33.31-0.27   c-18.6,0.06-37.21,0.27-55.81,0.37c-9.84,0.05-17.3-6.68-17.47-15.65c-0.18-9.29,6.28-15.74,16.43-15.78   c18.82-0.09,37.63-0.1,56.45-0.1v-23.79h-20.5v-22.05c-13.48,0.06-26.94,0.53-40.34,2.15c-15.88,1.91-32.26,6.59-43.12,19.19   c-15.05,17.48-18.19,43.76-9.05,64.64c10.78,24.62,30.91,36.72,57.9,36.78c28.77,0.07,57.54-0.09,86.32-0.05   c9.47,0.02,16.16,6.71,16.08,15.67c-0.08,8.69-6.7,15.11-15.89,15.37c-1.88,0.05-3.77,0.02-5.65,0.02   c-53.61,0-107.21,0.04-160.82-0.09c-3.51-0.01-5.07,1.16-6.47,4.23c-6.17,13.61-15.12,25.2-26.52,34.87   c-2.4,2.04-4.96,3.89-8.61,6.74c2.89,0,4.36,0,5.83,0c65.76-0.04,131.53-0.05,197.29-0.15c5.46-0.01,11.02-0.14,16.36-1.14   C755.66,574.21,776.73,546.46,774.17,514.73z"/>
</g>
</svg>